<svg width="263" height="297" viewBox="0 0 263 297" fill="none" xmlns="http://www.w3.org/2000/svg">
<path d="M62.375 177L76.3201 180.39C80.8025 181.48 83.958 185.494 83.958 190.107V222.636C83.958 227.555 80.381 231.743 75.523 232.513L62.6392 234.555" stroke="black" stroke-width="2" stroke-linecap="round"/>
<path d="M127.883 202.703L146.16 212.672C150.074 214.807 154.979 213.269 156.973 209.282V209.282C158.824 205.578 157.491 201.073 153.923 198.974L128.749 184.166C123.789 181.248 117.811 180.609 112.346 182.411L99.4303 186.669C97.4094 187.336 95.2952 187.675 93.1673 187.675H83.875" stroke="black" stroke-width="2" stroke-linecap="round"/>
<g filter="url(#filter0_b_108_177)">
<path d="M154.875 211.954L200.305 199.747C203.92 198.775 207.72 200.483 209.394 203.831V203.831C211.538 208.118 209.387 213.31 204.84 214.826L143.347 235.324C139.311 236.669 134.95 236.692 130.899 235.39L97.7358 224.724C95.757 224.087 93.691 223.763 91.6123 223.763H84.375" stroke="black" stroke-width="2" stroke-linecap="round"/>
</g>
<path d="M83.875 182.5L59.875 177.5C58.5416 194.667 56.075 230.2 56.875 235C57.875 241 78.875 242 83.875 235C87.875 229.4 85.5416 197.667 83.875 182.5Z" fill="#8D00FB" fill-opacity="0.05"/>
<path d="M83.875 225.5C88.375 217.5 72.375 212 55.375 219.5C46.875 222.252 46.875 231 55.375 236.5C63.875 242 79.375 233.5 83.875 225.5Z" fill="#8D00FB" fill-opacity="0.05"/>
<path d="M96.375 212.5C82.875 210.5 88.375 220.5 96.375 224.5C99.875 226.743 128.375 238.5 136.875 240C145.375 241.5 198.375 218.5 206.375 215.5C214.375 212.5 213.875 207.5 209.875 206.5C205.875 205.5 159.875 224.5 142.875 229.5C125.875 234.5 109.875 214.5 96.375 212.5Z" fill="#8D00FB" fill-opacity="0.05"/>
<path d="M133.201 169.658C139.235 108.906 118.01 112.18 98.2003 125.553" stroke="black" stroke-width="2"/>
<path d="M91.5888 80.9335C130.28 128.159 142.974 110.835 147.524 87.3714" stroke="black" stroke-width="2"/>
<path d="M128.34 63.6972C122.305 124.449 143.531 121.175 163.34 107.802" stroke="black" stroke-width="2"/>
<path d="M169.951 152.422C131.26 105.196 118.567 122.52 114.016 145.984" stroke="black" stroke-width="2"/>
<path d="M210.163 152.417C209.363 183.422 153.746 132.109 152.359 121.511C168.181 116.42 188.251 98.5545 203.029 111.434C217.807 124.313 180.213 107.603 177.816 122.99C175.419 138.377 210.963 121.411 210.163 152.417Z" fill="#8D00FB" fill-opacity="0.05"/>
<path d="M106.482 109.432C105.599 103.784 71.7527 76.2332 71.3997 92.7355C70.9426 114.1 93.5966 113 106.482 109.432Z" fill="#8D00FB" fill-opacity="0.05"/>
<path d="M101.635 106.657C101.22 103.957 85.246 90.7927 85.0735 98.6849C84.8502 108.902 95.5488 108.368 101.635 106.657Z" fill="#8D00FB" fill-opacity="0.05"/>
<path d="M157.682 124.711C158.098 127.412 174.072 140.575 174.244 132.683C174.467 122.466 163.769 123 157.682 124.711Z" fill="#8D00FB" fill-opacity="0.05"/>
<defs>
<filter id="filter0_b_108_177" x="79.375" y="194.476" width="135.854" height="46.874" filterUnits="userSpaceOnUse" color-interpolation-filters="sRGB">
<feFlood flood-opacity="0" result="BackgroundImageFix"/>
<feGaussianBlur in="BackgroundImageFix" stdDeviation="2"/>
<feComposite in2="SourceAlpha" operator="in" result="effect1_backgroundBlur_108_177"/>
<feBlend mode="normal" in="SourceGraphic" in2="effect1_backgroundBlur_108_177" result="shape"/>
</filter>
</defs>
</svg>
