<svg width="263" height="298" viewBox="0 0 263 298" fill="none" xmlns="http://www.w3.org/2000/svg">
<path d="M210.5 71.0127C215 71.0127 214.5 83.0127 222.5 73.5127C220 79.846 214.4 95.1127 212 105.513C209 118.513 187.5 202.513 187.5 219.013C187.5 235.513 184.5 238.013 164.5 241.013C144.5 244.013 130 236.513 124.5 233.513C119 230.513 128 201.513 139 162.013C147.8 130.413 165.667 83.5127 173.5 64.0127C173.333 67.1794 173.8 73.9127 177 75.5127C181 77.5127 182 67.0127 187.5 67.5127C193 68.0127 186.5 79.0127 194 81.5127C201.5 84.0127 206 71.0127 210.5 71.0127Z" fill="#8D00FB" fill-opacity="0.05"/>
<ellipse cx="157" cy="273.013" rx="87" ry="24" fill="#8D00FB" fill-opacity="0.05"/>
<path d="M186.064 223.17C186.521 204.337 208.474 118.374 219.393 77.7469C221.766 68.8544 220.135 6.5046 213.251 5.5349C206.367 4.56521 182.985 49.0932 172.615 69.8078C162.244 90.5223 126.831 207.98 124.576 227.717C122.321 247.453 185.493 246.711 186.064 223.17Z" stroke="black" stroke-width="2"/>
<path d="M200 20.5084C192.889 31.6742 209.947 28.1917 218 22.9094C217.684 17.7872 216.2 7.25456 212.789 6.10205C210 5.15942 203.5 15.0127 200 20.5084Z" fill="#8D00FB" fill-opacity="0.16" stroke="black" stroke-width="2"/>
<path d="M196 194.091C180.222 207.205 140.778 207.205 125 185.013" stroke="black" stroke-width="2"/>
<path d="M196 201.091C180.222 214.205 140 214.013 121 197.513" stroke="black" stroke-width="2"/>
<ellipse cx="183.486" cy="105.853" rx="2.5" ry="7" transform="rotate(10.31 183.486 105.853)" fill="#8D00FB" fill-opacity="0.16" stroke="black" stroke-width="2"/>
<ellipse cx="169.712" cy="103.347" rx="2.5" ry="7" transform="rotate(10.31 169.712 103.347)" fill="#8D00FB" fill-opacity="0.16" stroke="black" stroke-width="2"/>
<path d="M166.194 157.214C180.256 160.847 198.696 128.182 183.768 136.193C175.933 140.398 168.935 138.348 164.058 135.068C160.083 141.239 154.944 154.308 166.194 157.214Z" fill="#8D00FB" fill-opacity="0.16"/>
<path d="M158.323 129.619C159.528 131.291 161.502 133.348 164.058 135.068M164.058 135.068C168.935 138.348 175.933 140.398 183.768 136.193C198.696 128.182 180.256 160.847 166.194 157.214C154.944 154.308 160.083 141.239 164.058 135.068Z" stroke="black" stroke-width="2"/>
<path d="M219.5 75.5127C209.5 91.5127 213.5 69.5127 209.5 70.0127C205.5 70.5127 198.5 84.0127 194.5 81.0127C190.5 78.0127 190.5 68.0127 187 67.0127C183.5 66.0127 177 76.5127 175 75.5127C173.4 74.7127 174.333 67.1794 175 63.5127" stroke="black" stroke-width="2"/>
<path d="M179 230.513C165 260.013 201 265.013 195.5 274.013C190 283.013 163.5 272.013 179.5 268.513C192.3 265.713 191.833 269.346 190 271.513" stroke="black" stroke-width="2"/>
<path d="M135.569 231.013C121.569 260.513 146.569 265.513 141.069 274.513C135.569 283.513 109.069 272.513 125.069 269.013C137.869 266.213 137.402 269.846 135.569 272.013" stroke="black" stroke-width="2"/>
<path d="M200.5 151.013C208.333 156.513 222.8 169.213 218 176.013C212 184.513 184.5 165.513 177 176.013C169.5 186.513 182.5 192.013 185 184.013C187 177.613 183.167 178.679 181 180.013" stroke="black" stroke-width="2"/>
<path d="M148 139.113C124.922 161.211 104.408 154.531 98.8522 136.03C93.2964 117.529 74.9194 141.169 83.0394 143.739C91.1595 146.308 98.4249 136.813 90.7322 136.03" stroke="black" stroke-width="2"/>
<path d="M112.677 75.8456C51.6773 73.3456 56.1773 94.3456 70.6773 113.346" stroke="black" stroke-width="2"/>
<path d="M26.5165 122.535C71.4178 81.1688 53.3866 69.5016 29.6985 66.3196" stroke="black" stroke-width="2"/>
<path d="M7.17723 86.8456C68.1772 89.3456 63.6772 68.3456 49.1772 49.3456" stroke="black" stroke-width="2"/>
<path d="M93.3381 40.1566C48.4368 81.5223 66.468 93.1896 90.1561 96.3716" stroke="black" stroke-width="2"/>
<path d="M182.5 182.513C188.1 162.913 200.833 101.013 206.5 72.5127C213.409 38.5126 206.5 8.51266 214 6.01266C221.5 3.51266 221.5 61.5127 223.5 72.5127C225.5 83.5127 196.5 199.013 190 218.013C183.5 237.013 182.5 234.013 168.5 238.513C154.5 243.013 161 224.513 162 212.013C163 199.513 175.5 207.013 182.5 182.513Z" fill="#8D00FB" fill-opacity="0.05"/>
<path d="M91.0001 0.0126747C122 -0.987325 74.0001 57.5127 63.5001 59.5127C57.5001 44.0127 38.5001 25.0127 50.5001 9.51268C62.5001 -5.98732 48.0001 32.5127 63.5001 34.0127C79.0001 35.5127 60.0001 1.01267 91.0001 0.0126747Z" fill="#8D00FB" fill-opacity="0.05"/>
<path d="M54.1026 106.013C48.5156 107.223 22.9749 142.61 39.4699 142.005C60.8248 141.222 58.4123 118.67 54.1026 106.013Z" fill="#8D00FB" fill-opacity="0.05"/>
<path d="M51.6143 111.013C48.9422 111.584 36.7271 128.295 44.616 128.009C54.8293 127.639 53.6755 116.99 51.6143 111.013Z" fill="#8D00FB" fill-opacity="0.05"/>
<path d="M66.3857 54.0127C69.0578 53.4414 81.2729 36.7307 73.384 37.0163C63.1707 37.3861 64.3245 48.0357 66.3857 54.0127Z" fill="#8D00FB" fill-opacity="0.05"/>
<path d="M172.711 142.472C176.136 139.829 184.331 141.371 188 142.472C186.573 144.455 182.985 149.214 180.05 152.386C177.114 155.559 171.488 156.792 169.041 157.013C168.837 153.267 169.286 145.116 172.711 142.472Z" fill="#8D00FB" fill-opacity="0.26"/>
</svg>
