<svg width="44" height="44" viewBox="0 0 44 44" fill="none" xmlns="http://www.w3.org/2000/svg">
<g clip-path="url(#clip0_548_421)">
<circle cx="22" cy="22" r="21.5" stroke="black" stroke-opacity="0.3" stroke-linecap="round"/>
<path d="M25 30C25.5523 30 26.0008 29.5522 25.9773 29.0004C25.9611 28.6198 25.9332 28.206 25.8854 27.9062C25.7917 27.3385 25.0052 26.5885 21.6615 25.3594C18.3698 24.151 18.5729 24.7396 18.5729 22.5156C18.5729 21.0729 19.3073 21.9115 19.776 19.1719C19.9583 18.0938 20.1042 18.8125 20.5 17.0833C20.7083 16.1771 20.3594 16.1094 20.401 15.6771C20.4427 15.2448 20.4844 14.8594 20.5625 13.974C20.6562 12.8802 19.6406 10 16 10C12.3594 10 11.3437 12.8802 11.4427 13.9792C11.5208 14.8594 11.5625 15.25 11.6042 15.6823C11.6458 16.1146 11.2969 16.1823 11.5052 17.0885C11.901 18.8125 12.0469 18.0937 12.2292 19.1771C12.6979 21.9167 13.4323 21.0781 13.4323 22.5208C13.4323 24.75 13.6354 24.1615 10.3437 25.3646C7 26.5885 6.20833 27.3437 6.11979 27.9115C6.06988 28.2087 6.04077 28.6208 6.02378 29.0005C5.9991 29.5522 6.44772 30 7 30H16H25Z" stroke="black" stroke-opacity="0.3" stroke-linecap="round"/>
<path d="M27.3174 30H37C37.5523 30 38.0021 29.552 37.9736 29.0005C37.9593 28.7216 37.937 28.4361 37.9026 28.2203C37.8229 27.7378 37.1544 27.1003 34.3122 26.0555C31.5143 25.0284 31.687 25.5286 31.687 23.6383C31.687 22.412 32.3112 23.1247 32.7096 20.7961C32.8646 19.8797 32.9885 20.4906 33.325 19.0208C33.5021 18.2505 33.2055 18.193 33.2409 17.8255C33.2763 17.4581 33.3117 17.1305 33.3781 16.3779C33.4578 15.4482 32.5945 13 29.5 13C26.4055 13 25.5422 15.4482 25.6263 16.3823C25.6927 17.1305 25.7281 17.4625 25.7635 17.8299C25.799 18.1974 25.5023 18.2549 25.6794 19.0253C26.0159 20.4906 26.1398 19.8797 26.2948 20.8005C26.6932 23.1292 27.3174 22.4164 27.3174 23.6427C27.3174 25.0587 27.4139 25.1371 26.2948 25.5132" stroke="black" stroke-opacity="0.3" stroke-linecap="round"/>
</g>
<defs>
<clipPath id="clip0_548_421">
<rect width="44" height="44" fill="white"/>
</clipPath>
</defs>
</svg>
