<svg width="40" height="40" viewBox="0 0 40 40" fill="none" xmlns="http://www.w3.org/2000/svg">
<g clip-path="url(#clip0_548_421)">
<circle cx="20" cy="20" r="20" fill="#1759D5"/>
<path d="M22 26C22.5523 26 23.0026 25.552 22.9738 25.0004C22.9611 24.757 22.9422 24.513 22.9141 24.325C22.8437 23.8708 22.2539 23.2708 19.7461 22.2875C17.2773 21.3208 17.4297 21.7917 17.4297 20.0125C17.4297 18.8583 17.9805 19.5292 18.332 17.3375C18.4688 16.475 18.5781 17.05 18.875 15.6667C19.0312 14.9417 18.7695 14.8875 18.8008 14.5417C18.832 14.1958 18.8633 13.8875 18.9219 13.1792C18.9922 12.3042 18.2305 10 15.5 10C12.7695 10 12.0078 12.3042 12.082 13.1833C12.1406 13.8875 12.1719 14.2 12.2031 14.5458C12.2344 14.8917 11.9727 14.9458 12.1289 15.6708C12.4258 17.05 12.5352 16.475 12.6719 17.3417C13.0234 19.5333 13.5742 18.8625 13.5742 20.0167C13.5742 21.8 13.7266 21.3292 11.2578 22.2917C8.75 23.2708 8.15625 23.875 8.08984 24.3292C8.06052 24.5155 8.04077 24.7581 8.02747 25.0005C7.99719 25.5519 8.44772 26 9 26H15.5H22Z" stroke="white" stroke-linecap="round"/>
<path d="M25.2335 26H32C32.5523 26 33.0066 25.5515 32.9668 25.0007C32.9573 24.8687 32.945 24.7433 32.9292 24.6391C32.8713 24.2701 32.3852 23.7826 30.3189 22.9836C28.2847 22.1982 28.4103 22.5807 28.4103 21.1352C28.4103 20.1974 28.8641 20.7424 29.1538 18.9617C29.2664 18.2609 29.3565 18.7281 29.6012 17.6042C29.7299 17.0151 29.5142 16.9711 29.54 16.6901C29.5657 16.4091 29.5915 16.1586 29.6398 15.5831C29.6977 14.8721 29.0701 13 26.8203 13C24.5705 13 23.9428 14.8721 24.004 15.5865C24.0523 16.1586 24.078 16.4125 24.1038 16.6935C24.1295 16.9745 23.9139 17.0185 24.0426 17.6076C24.2872 18.7281 24.3774 18.2609 24.49 18.9651C24.7797 20.7458 25.2335 20.2008 25.2335 21.1385C25.2335 22.2214 25.3036 22.2813 24.49 22.5689" stroke="white" stroke-linecap="round"/>
</g>
<defs>
<clipPath id="clip0_548_421">
<rect width="40" height="40" fill="white"/>
</clipPath>
</defs>
</svg>
