<svg width="24" height="24" viewBox="0 0 24 24" fill="none" xmlns="http://www.w3.org/2000/svg">
<path d="M11 18L11 14C11 13.4477 10.5523 13 10 13L5 13C4.44772 13 4 13.4477 4 14L4 18C4 18.5523 4.44772 19 5 19L10 19C10.5523 19 11 18.5523 11 18Z" stroke="black" stroke-opacity="0.3" stroke-linecap="round"/>
<path d="M20 18L20 14C20 13.4477 19.5523 13 19 13L14 13C13.4477 13 13 13.4477 13 14L13 18C13 18.5523 13.4477 19 14 19L19 19C19.5523 19 20 18.5523 20 18Z" stroke="black" stroke-opacity="0.3" stroke-linecap="round"/>
<path d="M11 10L11 6C11 5.44772 10.5523 5 10 5L5 5C4.44772 5 4 5.44772 4 6L4 10C4 10.5523 4.44772 11 5 11L10 11C10.5523 11 11 10.5523 11 10Z" stroke="black" stroke-opacity="0.3" stroke-linecap="round"/>
<path d="M20 10L20 6C20 5.44772 19.5523 5 19 5L14 5C13.4477 5 13 5.44772 13 6L13 10C13 10.5523 13.4477 11 14 11L19 11C19.5523 11 20 10.5523 20 10Z" stroke="black" stroke-opacity="0.3" stroke-linecap="round"/>
</svg>
