<svg width="24" height="24" viewBox="0 0 24 24" fill="none" xmlns="http://www.w3.org/2000/svg">
<path d="M19 5L5 5C4.44771 5 4 5.44771 4 6C4 6.55228 4.44771 7 5 7L19 7C19.5523 7 20 6.55228 20 6C20 5.44772 19.5523 5 19 5Z" stroke="black" stroke-opacity="0.3" stroke-linecap="round"/>
<path d="M19 11L5 11C4.44771 11 4 11.4477 4 12C4 12.5523 4.44771 13 5 13L19 13C19.5523 13 20 12.5523 20 12C20 11.4477 19.5523 11 19 11Z" stroke="black" stroke-opacity="0.3" stroke-linecap="round"/>
<path d="M19 17L5 17C4.44771 17 4 17.4477 4 18C4 18.5523 4.44771 19 5 19L19 19C19.5523 19 20 18.5523 20 18C20 17.4477 19.5523 17 19 17Z" stroke="black" stroke-opacity="0.3" stroke-linecap="round"/>
</svg>
