<svg width="24" height="24" viewBox="0 0 24 24" fill="none" xmlns="http://www.w3.org/2000/svg">
<path d="M3 9V19C3 19.5523 3.44772 20 4 20H20C20.5523 20 21 19.5523 21 19V17.5M21 4.5H4.25C3.55964 4.5 3 5.05964 3 5.75V5.75C3 6.44036 3.55964 7 4.25 7H20C20.5523 7 21 7.44772 21 8V9.5" stroke="black" stroke-opacity="0.3" stroke-linecap="round"/>
<path d="M21 11H15C14.4477 11 14 11.4477 14 12V15C14 15.5523 14.4477 16 15 16H21C21.5523 16 22 15.5523 22 15V12C22 11.4477 21.5523 11 21 11Z" stroke="black" stroke-opacity="0.3" stroke-linecap="round"/>
<circle cx="16.5" cy="13.5" r="0.5" stroke="black" stroke-opacity="0.3" stroke-linecap="round"/>
</svg>
