<svg width="44" height="44" viewBox="0 0 44 44" fill="none" xmlns="http://www.w3.org/2000/svg">
<rect width="44" height="44" fill="white"/>
<path d="M7 38H37C37.5523 38 38 37.5523 38 37V14V7C38 6.44772 37.5523 6 37 6H7C6.44772 6 6 6.44772 6 7V37C6 37.5523 6.44772 38 7 38Z" stroke="#B2B2B2" stroke-linecap="round"/>
<path d="M31 16.0279L30 29.348C30 31.3674 28.3405 33 26.3406 33H20.7445C19.7658 33 18.8299 32.6132 18.149 31.9257L11.9683 25.5729C11.4336 25.0233 11.5295 24.0352 12.1051 23.5286V23.5286C12.2247 23.4234 12.256 23.3985 12.398 23.3264C12.561 23.2437 12.7385 23.2027 12.9155 23.2027C13.0367 23.2027 13.1443 23.2167 13.246 23.2448C13.3976 23.2866 13.54 23.3672 13.6774 23.4438C14.0912 23.6745 15.0465 24.2218 15.8835 24.7029C16.5509 25.0865 17.3837 24.6048 17.3837 23.8351V14.6529C17.3837 13.8792 17.9793 13.2779 18.7455 13.2779C19.5116 13.2779 20.1072 13.8792 20.1072 14.6529L20.5 21L21.0005 12.375C21.0005 11.6013 21.596 11 22.3622 11C23.1284 11 23.7239 11.6013 23.7239 12.375L24 21L24.6172 13.2779C24.6172 12.5042 25.2127 11.9029 25.9789 11.9029C26.7451 11.9029 27.3406 12.5042 27.3406 13.2779L28 21L28.2766 16.0279C28.2766 15.2543 28.8721 14.6529 29.6383 14.6529C30.4045 14.6529 31 15.2543 31 16.0279Z" stroke="#B2B2B2" stroke-linecap="round"/>
</svg>
