<svg width="44" height="44" viewBox="0 0 44 44" fill="none" xmlns="http://www.w3.org/2000/svg">
<rect width="44" height="44" fill="#1864DA"/>
<path d="M31 14.485L29.9 29.016C29.9 31.219 28.0746 33 25.8747 33H19.7189C18.6424 33 17.6129 32.578 16.8639 31.828L9.70637 24.532C9.31724 24.1354 9.32563 23.4969 9.72988 23.1157C9.8421 23.0098 9.9514 22.9076 10.0445 22.822C10.2123 22.6676 10.4025 22.5015 10.6124 22.4125C10.7706 22.3453 10.939 22.312 11.107 22.312C11.2501 22.312 11.376 22.3296 11.495 22.3649C11.6447 22.4092 11.7874 22.4881 11.9241 22.5635C12.3918 22.8215 13.5565 23.4836 14.5251 24.036C15.1924 24.4165 16.0221 23.9346 16.0221 23.1665V12.985C16.0221 12.141 16.6772 11.485 17.52 11.485C18.3628 11.485 19.0179 12.141 19.0179 12.985L19.45 19.9091L20.0005 10.5C20.0005 9.656 20.6556 9 21.4984 9C22.3412 9 22.9963 9.656 22.9963 10.5L23.3 19.9091L23.9789 11.485C23.9789 10.641 24.634 9.985 25.4768 9.985C26.3196 9.985 26.9747 10.641 26.9747 11.485L27.234 14.4965C27.2751 14.9743 27.9774 14.9638 28.0042 14.485V14.485C28.0042 13.641 28.6593 12.985 29.5021 12.985C30.3449 12.985 31 13.641 31 14.485Z" fill="white"/>
</svg>
