<svg width="44" height="44" viewBox="0 0 44 44" fill="none" xmlns="http://www.w3.org/2000/svg">
<rect width="44" height="44" fill="#1864DA"/>
<path d="M21.0489 8.92705C21.3483 8.00574 22.6517 8.00574 22.9511 8.92705L25.3677 16.3647C25.5016 16.7768 25.8855 17.0557 26.3188 17.0557H34.1392C35.1079 17.0557 35.5107 18.2953 34.727 18.8647L28.4001 23.4615C28.0496 23.7161 27.903 24.1675 28.0369 24.5795L30.4535 32.0172C30.7529 32.9385 29.6984 33.7047 28.9147 33.1353L22.5878 28.5385C22.2373 28.2839 21.7627 28.2839 21.4122 28.5385L15.0853 33.1353C14.3016 33.7047 13.2471 32.9385 13.5465 32.0172L15.9631 24.5795C16.097 24.1675 15.9504 23.7161 15.5999 23.4615L9.27299 18.8647C8.48928 18.2953 8.89206 17.0557 9.86078 17.0557H17.6812C18.1145 17.0557 18.4984 16.7768 18.6323 16.3647L21.0489 8.92705Z" fill="white"/>
</svg>
