<svg width="44" height="44" viewBox="0 0 44 44" fill="none" xmlns="http://www.w3.org/2000/svg">
<rect width="44" height="44" fill="white"/>
<path d="M7 38H37C37.5523 38 38 37.5523 38 37V14V7C38 6.44772 37.5523 6 37 6H7C6.44772 6 6 6.44772 6 7V37C6 37.5523 6.44772 38 7 38Z" stroke="#B2B2B2" stroke-linecap="round"/>
<path d="M21.0489 11.927C21.3483 11.0057 22.6517 11.0057 22.9511 11.9271L24.9187 17.9828C25.0526 18.3948 25.4365 18.6738 25.8697 18.6738H32.2371C33.2058 18.6738 33.6086 19.9134 32.8249 20.4828L27.6736 24.2254C27.3231 24.4801 27.1764 24.9314 27.3103 25.3435L29.2779 31.3992C29.5773 32.3205 28.5228 33.0866 27.7391 32.5172L22.5878 28.7746C22.2373 28.5199 21.7627 28.5199 21.4122 28.7746L16.2609 32.5172C15.4772 33.0866 14.4227 32.3205 14.7221 31.3992L16.6897 25.3435C16.8236 24.9314 16.6769 24.4801 16.3264 24.2254L11.1751 20.4828C10.3914 19.9134 10.7942 18.6738 11.7629 18.6738H18.1303C18.5635 18.6738 18.9474 18.3948 19.0813 17.9828L21.0489 11.927Z" stroke="#B2B2B2" stroke-linecap="round"/>
</svg>
