<svg width="44" height="44" viewBox="0 0 44 44" fill="none" xmlns="http://www.w3.org/2000/svg">
<rect width="44" height="44" fill="white"/>
<path d="M7 38H37C37.5523 38 38 37.5523 38 37V14V7C38 6.44772 37.5523 6 37 6H7C6.44772 6 6 6.44772 6 7V37C6 37.5523 6.44772 38 7 38Z" stroke="#B2B2B2" stroke-linecap="round"/>
<path d="M18.4421 27.0296L18.1876 27.46L18.4421 27.0296ZM25.5579 27.0296L25.3034 26.5993L25.5579 27.0296ZM28.5 21C28.5 23.383 27.2179 25.4672 25.3034 26.5993L25.8124 27.46C28.0186 26.1554 29.5 23.751 29.5 21H28.5ZM22 14.5C25.5899 14.5 28.5 17.4101 28.5 21H29.5C29.5 16.8579 26.1421 13.5 22 13.5V14.5ZM15.5 21C15.5 17.4101 18.4101 14.5 22 14.5V13.5C17.8579 13.5 14.5 16.8579 14.5 21H15.5ZM18.6966 26.5993C16.7821 25.4672 15.5 23.383 15.5 21H14.5C14.5 23.751 15.9814 26.1554 18.1876 27.46L18.6966 26.5993ZM19.5 32V27.9584H18.5V32H19.5ZM24 32.5H20V33.5H24V32.5ZM24.5 27.9584V32H25.5V27.9584H24.5ZM18.5 32C18.5 32.8284 19.1716 33.5 20 33.5V32.5C19.7239 32.5 19.5 32.2761 19.5 32H18.5ZM18.1876 27.46C18.3899 27.5797 18.5 27.7735 18.5 27.9584H19.5C19.5 27.3713 19.1588 26.8726 18.6966 26.5993L18.1876 27.46ZM24 33.5C24.8284 33.5 25.5 32.8284 25.5 32H24.5C24.5 32.2761 24.2761 32.5 24 32.5V33.5ZM25.3034 26.5993C24.8412 26.8726 24.5 27.3713 24.5 27.9584H25.5C25.5 27.7735 25.6101 27.5797 25.8124 27.46L25.3034 26.5993Z" fill="#B2B2B2"/>
<path d="M17 21C17 18.2386 19.2386 16 22 16" stroke="#B2B2B2" stroke-linecap="round"/>
<path d="M31 21H34" stroke="#B2B2B2" stroke-linecap="round"/>
<path d="M29.7942 16.5L32.3923 15" stroke="#B2B2B2" stroke-linecap="round"/>
<path d="M10 21H13" stroke="#B2B2B2" stroke-linecap="round"/>
<path d="M11.6077 27L14.2058 25.5" stroke="#B2B2B2" stroke-linecap="round"/>
<path d="M26.5 13.2058L28 10.6077" stroke="#B2B2B2" stroke-linecap="round"/>
<path d="M22 12L22 9" stroke="#B2B2B2" stroke-linecap="round"/>
<path d="M17.5 13.2058L16 10.6077" stroke="#B2B2B2" stroke-linecap="round"/>
<path d="M14.2058 16.5L11.6077 15" stroke="#B2B2B2" stroke-linecap="round"/>
<path d="M32.3923 27L29.7942 25.5" stroke="#B2B2B2" stroke-linecap="round"/>
<path d="M19 29H25" stroke="#B2B2B2" stroke-linecap="round"/>
<path d="M19 31H25" stroke="#B2B2B2" stroke-linecap="round"/>
</svg>
