<svg width="44" height="44" viewBox="0 0 44 44" fill="none" xmlns="http://www.w3.org/2000/svg">
<g clip-path="url(#clip0_199_6)">
<rect width="44" height="44" fill="white"/>
<path d="M44 22C44 9.84974 34.1503 0 22 0C9.84974 0 0 9.84974 0 22C0 34.1503 9.84974 44 22 44C34.1503 44 44 34.1503 44 22Z" fill="#1864DA"/>
<path fill-rule="evenodd" clip-rule="evenodd" d="M25.9474 27.1667C25.9474 26.7807 26.172 26.4333 26.5085 26.244C29.3148 24.6657 31.2105 21.6595 31.2105 18.2105C31.2105 13.1237 27.0868 9 22 9C16.9132 9 12.7895 13.1237 12.7895 18.2105C12.7895 21.6595 14.6852 24.6657 17.4915 26.244C17.828 26.4333 18.0526 26.7807 18.0526 27.1667V33C18.0526 33.5523 18.5003 34 19.0526 34H24.9474C25.4997 34 25.9474 33.5523 25.9474 33V27.1667Z" fill="white"/>
<path d="M26.5085 26.244L26.7536 26.6798L26.5085 26.244ZM30.7105 18.2105C30.7105 21.4716 28.9187 24.3149 26.2634 25.8082L26.7536 26.6798C29.711 25.0166 31.7105 21.8474 31.7105 18.2105H30.7105ZM22 9.5C26.8107 9.5 30.7105 13.3998 30.7105 18.2105H31.7105C31.7105 12.8476 27.363 8.5 22 8.5V9.5ZM13.2895 18.2105C13.2895 13.3998 17.1893 9.5 22 9.5V8.5C16.637 8.5 12.2895 12.8476 12.2895 18.2105H13.2895ZM17.7366 25.8082C15.0813 24.3149 13.2895 21.4716 13.2895 18.2105H12.2895C12.2895 21.8474 14.289 25.0166 17.2464 26.6798L17.7366 25.8082ZM18.5526 33V27.1667H17.5526V33H18.5526ZM24.9474 33.5H19.0526V34.5H24.9474V33.5ZM25.4474 27.1667V33H26.4474V27.1667H25.4474ZM17.5526 33C17.5526 33.8284 18.2242 34.5 19.0526 34.5V33.5C18.7765 33.5 18.5526 33.2761 18.5526 33H17.5526ZM17.2464 26.6798C17.4425 26.7901 17.5526 26.9801 17.5526 27.1667H18.5526C18.5526 26.5813 18.2134 26.0764 17.7366 25.8082L17.2464 26.6798ZM24.9474 34.5C25.7758 34.5 26.4474 33.8284 26.4474 33H25.4474C25.4474 33.2761 25.2235 33.5 24.9474 33.5V34.5ZM26.2634 25.8082C25.7866 26.0764 25.4474 26.5813 25.4474 27.1667H26.4474C26.4474 26.9801 26.5575 26.7901 26.7536 26.6798L26.2634 25.8082Z" fill="white"/>
<path d="M15.4211 18.2105C15.4211 14.5771 18.3665 11.6316 22 11.6316" stroke="white" stroke-linecap="round"/>
<path d="M19 29H25" stroke="#1864DA" stroke-linecap="round"/>
<path d="M19 31H25" stroke="#1864DA" stroke-linecap="round"/>
</g>
<defs>
<clipPath id="clip0_199_6">
<rect width="44" height="44" fill="white"/>
</clipPath>
</defs>
</svg>
