<svg width="44" height="44" viewBox="0 0 44 44" fill="none" xmlns="http://www.w3.org/2000/svg">
<g clip-path="url(#clip0_199_3)">
<rect width="44" height="44" fill="white"/>
<path d="M44 22C44 9.84974 34.1503 0 22 0C9.84974 0 0 9.84974 0 22C0 34.1503 9.84974 44 22 44C34.1503 44 44 34.1503 44 22Z" fill="#1864DA"/>
<path d="M10 32L17 9" stroke="white" stroke-linecap="round"/>
<path d="M31.2903 22.2645C25.871 25.0272 21.1822 17.4755 13 23L16.2766 12.2572C16.3478 12.0236 16.5054 11.8206 16.7166 11.6981C23.999 7.47538 29.3282 12.5383 34 11.8947C32.6452 15.567 31.9677 18.9457 31.2903 22.2645Z" fill="white"/>
</g>
<defs>
<clipPath id="clip0_199_3">
<rect width="44" height="44" fill="white"/>
</clipPath>
</defs>
</svg>
