<svg width="44" height="44" viewBox="0 0 44 44" fill="none" xmlns="http://www.w3.org/2000/svg">
<rect width="44" height="44" fill="white"/>
<path d="M7 38H37C37.5523 38 38 37.5523 38 37V14V7C38 6.44772 37.5523 6 37 6H7C6.44772 6 6 6.44772 6 7V37C6 37.5523 6.44772 38 7 38Z" stroke="#B2B2B2" stroke-linecap="round"/>
<path d="M25.5 19C25.5 22.5899 22.5899 25.5 19 25.5V26.5C23.1421 26.5 26.5 23.1421 26.5 19H25.5ZM19 25.5C15.4101 25.5 12.5 22.5899 12.5 19H11.5C11.5 23.1421 14.8579 26.5 19 26.5V25.5ZM12.5 19C12.5 15.4101 15.4101 12.5 19 12.5V11.5C14.8579 11.5 11.5 14.8579 11.5 19H12.5ZM19 12.5C22.5899 12.5 25.5 15.4101 25.5 19H26.5C26.5 14.8579 23.1421 11.5 19 11.5V12.5Z" fill="#B2B2B2"/>
<path d="M14 19C14 16.2386 16.2386 14 19 14" stroke="#B2B2B2" stroke-linecap="round"/>
<path d="M23 25.2116L28.9414 31.153C29.3319 31.5436 29.9651 31.5436 30.3556 31.153L31.153 30.3556C31.5436 29.9651 31.5436 29.3319 31.153 28.9414L25.2116 23" stroke="#B2B2B2" stroke-linecap="round"/>
</svg>
