<svg width="44" height="44" viewBox="0 0 44 44" fill="none" xmlns="http://www.w3.org/2000/svg">
<g clip-path="url(#clip0_199_10)">
<rect width="44" height="44" fill="white"/>
<path d="M44 22C44 9.84974 34.1503 0 22 0C9.84974 0 0 9.84974 0 22C0 34.1503 9.84974 44 22 44C34.1503 44 44 34.1503 44 22Z" fill="#1864DA"/>
<path d="M26.877 18.3686C26.877 23.0677 23.0677 26.877 18.3686 26.877C13.6695 26.877 9.86014 23.0677 9.86014 18.3686C9.86014 13.6695 13.6695 9.86014 18.3686 9.86014C23.0677 9.86014 26.877 13.6695 26.877 18.3686Z" fill="white"/>
<path d="M26.377 18.3686C26.377 22.7915 22.7915 26.377 18.3686 26.377V27.377C23.3438 27.377 27.377 23.3438 27.377 18.3686H26.377ZM18.3686 26.377C13.9456 26.377 10.3601 22.7915 10.3601 18.3686H9.36014C9.36014 23.3438 13.3934 27.377 18.3686 27.377V26.377ZM10.3601 18.3686C10.3601 13.9456 13.9456 10.3601 18.3686 10.3601V9.36014C13.3934 9.36014 9.36014 13.3934 9.36014 18.3686H10.3601ZM18.3686 10.3601C22.7915 10.3601 26.377 13.9456 26.377 18.3686H27.377C27.377 13.3934 23.3438 9.36014 18.3686 9.36014V10.3601Z" fill="white"/>
<path d="M13 18C13 15.2386 15.2386 13 18 13" stroke="#1864DA" stroke-linecap="round"/>
<path d="M23.2306 25.9188L30.6047 33.2929C30.9952 33.6834 31.6284 33.6834 32.0189 33.2929L33.2929 32.0189C33.6834 31.6284 33.6834 30.9952 33.2929 30.6047L25.9188 23.2306" stroke="white" stroke-linecap="round"/>
</g>
<defs>
<clipPath id="clip0_199_10">
<rect width="44" height="44" fill="white"/>
</clipPath>
</defs>
</svg>
