<svg width="44" height="44" viewBox="0 0 44 44" fill="none" xmlns="http://www.w3.org/2000/svg">
<rect width="44" height="44" fill="white"/>
<path d="M7 38H37C37.5523 38 38 37.5523 38 37V14V7C38 6.44772 37.5523 6 37 6H7C6.44772 6 6 6.44772 6 7V37C6 37.5523 6.44772 38 7 38Z" stroke="#B2B2B2" stroke-linecap="round"/>
<path d="M6 8C7.83333 7.66667 12.1 7.8 14.5 11C16.7871 14.0495 16.2287 18.552 15.5942 20.6996C15.5358 20.8972 15.5318 21.1059 15.591 21.3032L16.7583 25.1944C16.898 25.66 16.6826 26.1587 16.2477 26.3761L15 27L15.0613 27.1838C15.2771 27.8313 14.7951 28.5 14.1126 28.5H12L13.7519 29.6679C14.3457 30.0638 14.3418 30.9388 13.7481 31.3346V31.3346C13.5867 31.4422 13.4593 31.5949 13.3829 31.7732L12.6533 33.4757C12.2744 34.3597 11.32 34.8489 10.3811 34.6402L8.2036 34.1564C7.78342 34.063 7.35063 34.249 7.12917 34.618L6 36.5" stroke="#B2B2B2" stroke-linecap="round"/>
<path d="M20 14C20 11.7909 21.7909 10 24 10H31C33.2091 10 35 11.7909 35 14V20C35 22.2091 33.2091 24 31 24H26.0208C25.0411 24 24.0955 24.3595 23.3633 25.0104L21.6644 26.5206C21.0195 27.0938 20 26.636 20 25.7732V14Z" stroke="#B2B2B2" stroke-linecap="round"/>
<path d="M24 14H29" stroke="#B2B2B2" stroke-linecap="round"/>
<path d="M24 20H29" stroke="#B2B2B2" stroke-linecap="round"/>
<path d="M24 17H31" stroke="#B2B2B2" stroke-linecap="round"/>
</svg>
